<svg xmlns="http://www.w3.org/2000/svg" width="202" height="281" viewBox="0 0 1200 1669" fill="none">
  <title>Private message notifications</title>
  <defs>
    <linearGradient id="bg" x1="0" y1="0" x2="1200" y2="1669" gradientUnits="userSpaceOnUse"><stop stop-color="#25123a"/><stop offset="1" stop-color="#080d18"/></linearGradient>
    <linearGradient id="panel" x1="0" y1="0" x2="1" y2="1"><stop stop-color="#fff"/><stop offset="1" stop-color="#f2f5fa"/></linearGradient>
    <linearGradient id="accent" x1="0" y1="0" x2="1" y2="1"><stop stop-color="#9338f5"/><stop offset="1" stop-color="#25123a"/></linearGradient>
    <filter id="shadow" x="-20%" y="-20%" width="140%" height="150%"><feDropShadow dx="0" dy="24" stdDeviation="24" flood-color="#000" flood-opacity=".28"/></filter>
  </defs>
  <rect width="1200" height="1669" rx="36" fill="url(#bg)"/>
  <circle cx="1030" cy="234" r="240" fill="#9338f5" opacity=".12"/>
  <circle cx="145" cy="1469" r="210" fill="#9338f5" opacity=".08"/>
  <rect x="186.26" y="49" width="827.48" height="1571" rx="58" fill="#070a10" filter="url(#shadow)" stroke="#738198" stroke-opacity=".45" stroke-width="3"/><rect x="197.26" y="60" width="805.48" height="1549" rx="48" fill="#fbfcff" /><rect x="487.2328" y="72" width="225.53440000000003" height="18" rx="9" fill="#10141a" /><text x="232.26" y="106" fill="#182036" font-family="Inter,Arial,sans-serif" font-size="16" font-weight="700" >9:41</text><text x="231.26" y="158" fill="#9338f5" font-family="Inter,Arial,sans-serif" font-size="19" font-weight="750" >Temp Mail</text><text x="231.26" y="210" fill="#1b2338" font-family="Inter,Arial,sans-serif" font-size="27" font-weight="760" >Private message notifications</text><text x="231.26" y="239" fill="#768197" font-family="Inter,Arial,sans-serif" font-size="14" font-weight="500" >Know when a new message reaches a temporary inbox</text><rect x="225.26" y="268" width="749.48" height="72" rx="16" fill="#9338f512" /><text x="243.26" y="300" fill="#27324a" font-family="Inter,Arial,sans-serif" font-size="15" font-weight="720" >New message</text><text x="243.26" y="321" fill="#69758c" font-family="Inter,Arial,sans-serif" font-size="12" font-weight="550" >Private alert</text><rect x="225.26" y="363" width="749.48" height="124" rx="15" fill="#ffffff" stroke="#e9edf3"/><rect x="241.26" y="380" width="35" height="35" rx="11" fill="#9338f518" /><path d="M250.26 398h17m-8-8v16" stroke="#9338f5" stroke-width="2.5" stroke-linecap="round"/><text x="290.26" y="398" fill="#2b3650" font-family="Inter,Arial,sans-serif" font-size="14" font-weight="700" >New message</text><rect x="290.26" y="412" width="655.48" height="5" rx="3" fill="#edf0f5" /><rect x="290.26" y="412" width="347.4044" height="5" rx="3" fill="#9338f5" /><text x="290.26" y="442" fill="#7b8699" font-family="Inter,Arial,sans-serif" font-size="11" font-weight="500" >Open workspace</text><rect x="225.26" y="499" width="749.48" height="124" rx="15" fill="#ffffff" stroke="#e9edf3"/><rect x="241.26" y="516" width="35" height="35" rx="11" fill="#9338f518" /><path d="M250.26 534h17m-8-8v16" stroke="#9338f5" stroke-width="2.5" stroke-linecap="round"/><text x="290.26" y="534" fill="#2b3650" font-family="Inter,Arial,sans-serif" font-size="14" font-weight="700" >Private alert</text><rect x="290.26" y="548" width="655.48" height="5" rx="3" fill="#edf0f5" /><rect x="290.26" y="548" width="426.062" height="5" rx="3" fill="#9338f5" /><text x="290.26" y="578" fill="#7b8699" font-family="Inter,Arial,sans-serif" font-size="11" font-weight="500" >Review details</text><rect x="225.26" y="635" width="749.48" height="124" rx="15" fill="#ffffff" stroke="#e9edf3"/><rect x="241.26" y="652" width="35" height="35" rx="11" fill="#9338f518" /><path d="M250.26 670h17m-8-8v16" stroke="#9338f5" stroke-width="2.5" stroke-linecap="round"/><text x="290.26" y="670" fill="#2b3650" font-family="Inter,Arial,sans-serif" font-size="14" font-weight="700" >Open inbox</text><rect x="290.26" y="684" width="655.48" height="5" rx="3" fill="#edf0f5" /><rect x="290.26" y="684" width="504.7196" height="5" rx="3" fill="#9338f5" /><text x="290.26" y="714" fill="#7b8699" font-family="Inter,Arial,sans-serif" font-size="11" font-weight="500" >Review details</text><rect x="225.26" y="1518" width="749.48" height="45" rx="13" fill="#9338f5" /><text x="600" y="1546" fill="#fff" font-family="Inter,Arial,sans-serif" font-size="14" font-weight="750" text-anchor="middle">New message</text><path d="M487.2328 1589H712.7672" stroke="#121722" stroke-width="5" stroke-linecap="round"/>
  </svg>