<svg xmlns="http://www.w3.org/2000/svg" width="840" height="728" viewBox="0 0 1200 1040" fill="none">
  <title>Route tracking</title>
  <defs>
    <linearGradient id="bg" x1="0" y1="0" x2="1200" y2="1040" gradientUnits="userSpaceOnUse"><stop stop-color="#111936"/><stop offset="1" stop-color="#080d18"/></linearGradient>
    <linearGradient id="panel" x1="0" y1="0" x2="1" y2="1"><stop stop-color="#fff"/><stop offset="1" stop-color="#f2f5fa"/></linearGradient>
    <linearGradient id="accent" x1="0" y1="0" x2="1" y2="1"><stop stop-color="#6855f5"/><stop offset="1" stop-color="#111936"/></linearGradient>
    <filter id="shadow" x="-20%" y="-20%" width="140%" height="150%"><feDropShadow dx="0" dy="24" stdDeviation="24" flood-color="#000" flood-opacity=".28"/></filter>
  </defs>
  <rect width="1200" height="1040" rx="36" fill="url(#bg)"/>
  <circle cx="1030" cy="146" r="240" fill="#6855f5" opacity=".12"/>
  <circle cx="145" cy="915" r="210" fill="#6855f5" opacity=".08"/>
  <rect x="42" y="42" width="1116" height="956" rx="28" fill="url(#panel)" filter="url(#shadow)"/><rect x="42" y="42" width="1116" height="64" rx="18" fill="#ffffff" stroke="#e7ebf2"/><rect x="60" y="59" width="30" height="30" rx="9" fill="#6855f5" /><text x="69" y="80" fill="#fff" font-family="Inter,Arial,sans-serif" font-size="17" font-weight="800" >A</text><text x="104" y="81" fill="#172136" font-family="Inter,Arial,sans-serif" font-size="17" font-weight="750" >AI Sales &amp; Distribution</text><rect x="1030" y="62" width="86" height="24" rx="12" fill="#f3f5f9" /><rect x="1127" y="66" width="8" height="8" rx="4" fill="#6855f5" /><text x="1048" y="79" fill="#7d889d" font-family="Inter,Arial,sans-serif" font-size="11" font-weight="600" >Workspace</text><rect x="58" y="126" width="192" height="856" rx="14" fill="#f9fafc" /><rect x="68" y="125" width="172" height="42" rx="9" fill="#6855f515" /><circle cx="89" cy="145" r="6" fill="#6855f5"/><text x="107" y="150" fill="#6855f5" font-family="Inter,Arial,sans-serif" font-size="13" font-weight="700" >Overview</text><circle cx="89" cy="203" r="6" fill="#b2bac8"/><text x="107" y="208" fill="#6c778a" font-family="Inter,Arial,sans-serif" font-size="13" font-weight="500" >Sales</text><circle cx="89" cy="261" r="6" fill="#b2bac8"/><text x="107" y="266" fill="#6c778a" font-family="Inter,Arial,sans-serif" font-size="13" font-weight="500" >Inventory</text><circle cx="89" cy="319" r="6" fill="#b2bac8"/><text x="107" y="324" fill="#6c778a" font-family="Inter,Arial,sans-serif" font-size="13" font-weight="500" >Orders</text><circle cx="89" cy="377" r="6" fill="#b2bac8"/><text x="107" y="382" fill="#6c778a" font-family="Inter,Arial,sans-serif" font-size="13" font-weight="500" >Field operations</text><text x="288" y="146" fill="#182236" font-family="Inter,Arial,sans-serif" font-size="30" font-weight="780" >Route tracking</text><text x="288" y="176" fill="#758097" font-family="Inter,Arial,sans-serif" font-size="15" font-weight="500" >Field routes, delivery progress and location updates</text><rect x="980" y="142" width="110" height="36" rx="18" fill="#6855f516" /><text x="994" y="166" fill="#6855f5" font-family="Inter,Arial,sans-serif" font-size="14" font-weight="700" >Overview</text><rect x="288" y="204" width="270.6666666666667" height="122" rx="14" fill="#ffffff" stroke="#e9edf3"/><rect x="306" y="222" width="30" height="30" rx="9" fill="#6855f518" /><path d="M315 238l6-8 6 8" stroke="#6855f5" stroke-width="3" stroke-linecap="round" stroke-linejoin="round"/><text x="306" y="272" fill="#1d2940" font-family="Inter,Arial,sans-serif" font-size="15" font-weight="700" >Planned routes</text><rect x="306" y="302" width="234.66666666666669" height="5" rx="3" fill="#edf0f5" /><rect x="306" y="302" width="103.25333333333334" height="5" rx="3" fill="#6855f5" /><rect x="574.6666666666667" y="204" width="270.6666666666667" height="122" rx="14" fill="#ffffff" stroke="#e9edf3"/><rect x="592.6666666666667" y="222" width="30" height="30" rx="9" fill="#6855f518" /><path d="M601.6666666666667 238l6-8 6 8" stroke="#6855f5" stroke-width="3" stroke-linecap="round" stroke-linejoin="round"/><text x="592.6666666666667" y="272" fill="#1d2940" font-family="Inter,Arial,sans-serif" font-size="15" font-weight="700" >Delivery stops</text><rect x="592.6666666666667" y="302" width="234.66666666666669" height="5" rx="3" fill="#edf0f5" /><rect x="592.6666666666667" y="302" width="133.76000000000002" height="5" rx="3" fill="#6855f5" /><rect x="861.3333333333334" y="204" width="270.6666666666667" height="122" rx="14" fill="#ffffff" stroke="#e9edf3"/><rect x="879.3333333333334" y="222" width="30" height="30" rx="9" fill="#6855f518" /><path d="M888.3333333333334 238l6-8 6 8" stroke="#6855f5" stroke-width="3" stroke-linecap="round" stroke-linejoin="round"/><text x="879.3333333333334" y="272" fill="#1d2940" font-family="Inter,Arial,sans-serif" font-size="15" font-weight="700" >Live progress</text><rect x="879.3333333333334" y="302" width="234.66666666666669" height="5" rx="3" fill="#edf0f5" /><rect x="879.3333333333334" y="302" width="164.26666666666668" height="5" rx="3" fill="#6855f5" /><rect x="288" y="344" width="523" height="630" rx="16" fill="#ffffff" stroke="#e9edf3"/><text x="308" y="375" fill="#202b40" font-family="Inter,Arial,sans-serif" font-size="16" font-weight="730" >Route overview</text><rect x="310" y="398" width="479" height="554" rx="12" fill="#eef4ef" /><path d="M325 423 C463.28 398,616.56 461,777 428" stroke="#d8e5dd" stroke-width="2"/><path d="M325 455 C463.28 427,616.56 479,777 457" stroke="#d8e5dd" stroke-width="2"/><path d="M325 487 C463.28 456,616.56 497,777 486" stroke="#d8e5dd" stroke-width="2"/><path d="M325 519 C463.28 485,616.56 515,777 515" stroke="#d8e5dd" stroke-width="2"/><path d="M325 551 C463.28 514,616.56 533,777 544" stroke="#d8e5dd" stroke-width="2"/><path d="M365 796.88 C477.65 763.6400000000001,525.55 508.8,712.3599999999999 575.28" stroke="#6855f5" stroke-width="6" stroke-linecap="round" stroke-dasharray="2 12"/><circle cx="405.8" cy="796.88" r="11" fill="#6855f5" stroke="#fff" stroke-width="5"/><circle cx="544.71" cy="647.3" r="11" fill="#6855f5" stroke="#fff" stroke-width="5"/><circle cx="683.62" cy="575.28" r="11" fill="#6855f5" stroke="#fff" stroke-width="5"/><text x="328" y="935" fill="#44536a" font-family="Inter,Arial,sans-serif" font-size="13" font-weight="700" >Planned routes</text><rect x="827" y="344" width="305" height="630" rx="16" fill="#ffffff" stroke="#e9edf3"/><text x="845" y="375" fill="#202b40" font-family="Inter,Arial,sans-serif" font-size="15" font-weight="730" >Included in this view</text><rect x="843" y="393" width="27" height="27" rx="8" fill="#6855f518" /><path d="M851 407h11" stroke="#6855f5" stroke-width="3" stroke-linecap="round"/><text x="879" y="412" fill="#354158" font-family="Inter,Arial,sans-serif" font-size="13" font-weight="650" >Planned routes</text><path d="M843 427H1130" stroke="#eff1f5"/><rect x="843" y="447" width="27" height="27" rx="8" fill="#6855f518" /><path d="M851 461h11" stroke="#6855f5" stroke-width="3" stroke-linecap="round"/><text x="879" y="466" fill="#354158" font-family="Inter,Arial,sans-serif" font-size="13" font-weight="650" >Delivery stops</text><path d="M843 481H1130" stroke="#eff1f5"/><rect x="843" y="501" width="27" height="27" rx="8" fill="#6855f518" /><path d="M851 515h11" stroke="#6855f5" stroke-width="3" stroke-linecap="round"/><text x="879" y="520" fill="#354158" font-family="Inter,Arial,sans-serif" font-size="13" font-weight="650" >Live progress</text>
  </svg>