<svg xmlns="http://www.w3.org/2000/svg" width="1536" height="1024" viewBox="0 0 1200 800" fill="none">
  <title>Mixing and mastering services</title>
  <defs>
    <linearGradient id="bg" x1="0" y1="0" x2="1200" y2="800" gradientUnits="userSpaceOnUse"><stop stop-color="#071b19"/><stop offset="1" stop-color="#080d18"/></linearGradient>
    <linearGradient id="panel" x1="0" y1="0" x2="1" y2="1"><stop stop-color="#fff"/><stop offset="1" stop-color="#f2f5fa"/></linearGradient>
    <linearGradient id="accent" x1="0" y1="0" x2="1" y2="1"><stop stop-color="#97d84a"/><stop offset="1" stop-color="#071b19"/></linearGradient>
    <filter id="shadow" x="-20%" y="-20%" width="140%" height="150%"><feDropShadow dx="0" dy="24" stdDeviation="24" flood-color="#000" flood-opacity=".28"/></filter>
  </defs>
  <rect width="1200" height="800" rx="36" fill="url(#bg)"/>
  <circle cx="1030" cy="112" r="240" fill="#97d84a" opacity=".12"/>
  <circle cx="145" cy="704" r="210" fill="#97d84a" opacity=".08"/>
  <rect x="42" y="42" width="1116" height="716" rx="28" fill="url(#panel)" filter="url(#shadow)"/><rect x="42" y="42" width="1116" height="64" rx="18" fill="#ffffff" stroke="#e7ebf2"/><rect x="60" y="59" width="30" height="30" rx="9" fill="#97d84a" /><text x="69" y="80" fill="#fff" font-family="Inter,Arial,sans-serif" font-size="17" font-weight="800" >A</text><text x="104" y="81" fill="#172136" font-family="Inter,Arial,sans-serif" font-size="17" font-weight="750" >Audio Studio</text><rect x="1030" y="62" width="86" height="24" rx="12" fill="#f3f5f9" /><rect x="1127" y="66" width="8" height="8" rx="4" fill="#97d84a" /><text x="1048" y="79" fill="#7d889d" font-family="Inter,Arial,sans-serif" font-size="11" font-weight="600" >Workspace</text><rect x="58" y="126" width="192" height="616" rx="14" fill="#f9fafc" /><rect x="68" y="125" width="172" height="42" rx="9" fill="#97d84a15" /><circle cx="89" cy="145" r="6" fill="#97d84a"/><text x="107" y="150" fill="#97d84a" font-family="Inter,Arial,sans-serif" font-size="13" font-weight="700" >Services</text><circle cx="89" cy="203" r="6" fill="#b2bac8"/><text x="107" y="208" fill="#6c778a" font-family="Inter,Arial,sans-serif" font-size="13" font-weight="500" >Upload</text><circle cx="89" cy="261" r="6" fill="#b2bac8"/><text x="107" y="266" fill="#6c778a" font-family="Inter,Arial,sans-serif" font-size="13" font-weight="500" >Projects</text><circle cx="89" cy="319" r="6" fill="#b2bac8"/><text x="107" y="324" fill="#6c778a" font-family="Inter,Arial,sans-serif" font-size="13" font-weight="500" >Samples</text><circle cx="89" cy="377" r="6" fill="#b2bac8"/><text x="107" y="382" fill="#6c778a" font-family="Inter,Arial,sans-serif" font-size="13" font-weight="500" >Delivery</text><text x="288" y="146" fill="#182236" font-family="Inter,Arial,sans-serif" font-size="30" font-weight="780" >Mixing and mastering services</text><text x="288" y="176" fill="#758097" font-family="Inter,Arial,sans-serif" font-size="15" font-weight="500" >Browse studio services and choose the right package</text><rect x="980" y="142" width="110" height="36" rx="18" fill="#97d84a16" /><text x="994" y="166" fill="#97d84a" font-family="Inter,Arial,sans-serif" font-size="14" font-weight="700" >Overview</text><rect x="288" y="204" width="270.6666666666667" height="120" rx="14" fill="#ffffff" stroke="#e9edf3"/><rect x="306" y="222" width="30" height="30" rx="9" fill="#97d84a18" /><path d="M315 238l6-8 6 8" stroke="#97d84a" stroke-width="3" stroke-linecap="round" stroke-linejoin="round"/><text x="306" y="272" fill="#1d2940" font-family="Inter,Arial,sans-serif" font-size="15" font-weight="700" >Mixing</text><rect x="306" y="300" width="234.66666666666669" height="5" rx="3" fill="#edf0f5" /><rect x="306" y="300" width="103.25333333333334" height="5" rx="3" fill="#97d84a" /><rect x="574.6666666666667" y="204" width="270.6666666666667" height="120" rx="14" fill="#ffffff" stroke="#e9edf3"/><rect x="592.6666666666667" y="222" width="30" height="30" rx="9" fill="#97d84a18" /><path d="M601.6666666666667 238l6-8 6 8" stroke="#97d84a" stroke-width="3" stroke-linecap="round" stroke-linejoin="round"/><text x="592.6666666666667" y="272" fill="#1d2940" font-family="Inter,Arial,sans-serif" font-size="15" font-weight="700" >Mastering</text><rect x="592.6666666666667" y="300" width="234.66666666666669" height="5" rx="3" fill="#edf0f5" /><rect x="592.6666666666667" y="300" width="133.76000000000002" height="5" rx="3" fill="#97d84a" /><rect x="861.3333333333334" y="204" width="270.6666666666667" height="120" rx="14" fill="#ffffff" stroke="#e9edf3"/><rect x="879.3333333333334" y="222" width="30" height="30" rx="9" fill="#97d84a18" /><path d="M888.3333333333334 238l6-8 6 8" stroke="#97d84a" stroke-width="3" stroke-linecap="round" stroke-linejoin="round"/><text x="879.3333333333334" y="272" fill="#1d2940" font-family="Inter,Arial,sans-serif" font-size="15" font-weight="700" >Dolby Atmos</text><rect x="879.3333333333334" y="300" width="234.66666666666669" height="5" rx="3" fill="#edf0f5" /><rect x="879.3333333333334" y="300" width="164.26666666666668" height="5" rx="3" fill="#97d84a" /><rect x="288" y="342" width="523" height="392" rx="16" fill="#ffffff" stroke="#e9edf3"/><text x="308" y="373" fill="#202b40" font-family="Inter,Arial,sans-serif" font-size="16" font-weight="730" >Workflow overview</text><path d="M316 414H783" stroke="#edf0f4" stroke-width="2"/><path d="M316 487.5H783" stroke="#edf0f4" stroke-width="2"/><path d="M316 561H783" stroke="#edf0f4" stroke-width="2"/><path d="M316 634.5H783" stroke="#edf0f4" stroke-width="2"/><rect x="316" y="608.04" width="30.666666666666668" height="99.96" rx="5" fill="#97d84a35" /><rect x="355.6666666666667" y="558.06" width="30.666666666666668" height="149.94" rx="5" fill="#97d84a35" /><rect x="395.33333333333337" y="508.08000000000004" width="30.666666666666668" height="199.92" rx="5" fill="#97d84a35" /><rect x="435" y="613.92" width="30.666666666666668" height="94.08" rx="5" fill="#97d84a35" /><rect x="474.6666666666667" y="563.94" width="30.666666666666668" height="144.06" rx="5" fill="#97d84a35" /><rect x="514.3333333333334" y="513.96" width="30.666666666666668" height="194.03999999999996" rx="5" fill="#97d84a35" /><rect x="554" y="619.8" width="30.666666666666668" height="88.2" rx="5" fill="#97d84a35" /><rect x="593.6666666666667" y="569.82" width="30.666666666666668" height="138.17999999999998" rx="5" fill="#97d84a35" /><rect x="633.3333333333334" y="519.84" width="30.666666666666668" height="188.16" rx="5" fill="#97d84a35" /><rect x="673" y="625.68" width="30.666666666666668" height="82.32000000000001" rx="5" fill="#97d84a70" /><rect x="712.6666666666667" y="575.7" width="30.666666666666668" height="132.3" rx="5" fill="#97d84a70" /><rect x="752.3333333333334" y="525.72" width="30.666666666666668" height="182.28" rx="5" fill="#97d84a70" /><rect x="827" y="342" width="305" height="392" rx="16" fill="#ffffff" stroke="#e9edf3"/><text x="845" y="373" fill="#202b40" font-family="Inter,Arial,sans-serif" font-size="15" font-weight="730" >Included in this view</text><rect x="843" y="391" width="27" height="27" rx="8" fill="#97d84a18" /><path d="M851 405h11" stroke="#97d84a" stroke-width="3" stroke-linecap="round"/><text x="879" y="410" fill="#354158" font-family="Inter,Arial,sans-serif" font-size="13" font-weight="650" >Mixing</text><path d="M843 425H1130" stroke="#eff1f5"/><rect x="843" y="445" width="27" height="27" rx="8" fill="#97d84a18" /><path d="M851 459h11" stroke="#97d84a" stroke-width="3" stroke-linecap="round"/><text x="879" y="464" fill="#354158" font-family="Inter,Arial,sans-serif" font-size="13" font-weight="650" >Mastering</text><path d="M843 479H1130" stroke="#eff1f5"/><rect x="843" y="499" width="27" height="27" rx="8" fill="#97d84a18" /><path d="M851 513h11" stroke="#97d84a" stroke-width="3" stroke-linecap="round"/><text x="879" y="518" fill="#354158" font-family="Inter,Arial,sans-serif" font-size="13" font-weight="650" >Dolby Atmos</text>
  </svg>